<?xml version="1.0" encoding="UTF-8"?>
<svg width="270px" height="40px" viewBox="0 0 270 40" version="1.1" xmlns="http://www.w3.org/2000/svg" xmlns:xlink="http://www.w3.org/1999/xlink">
    <!-- Generator: Sketch 51.3 (57544) - http://www.bohemiancoding.com/sketch -->
    <title>Group 4</title>
    <desc>Created with Sketch.</desc>
    <defs>
        <linearGradient x1="37.8614232%" y1="0%" x2="37.8614232%" y2="100%" id="linearGradient-1">
            <stop stop-color="#54A0FF" offset="0%"></stop>
            <stop stop-color="#003BEB" offset="100%"></stop>
        </linearGradient>
        <linearGradient x1="53.1097376%" y1="100%" x2="53.1097376%" y2="0%" id="linearGradient-2">
            <stop stop-color="#00AF62" offset="0%"></stop>
            <stop stop-color="#00FF61" offset="100%"></stop>
        </linearGradient>
    </defs>
    <g id="Page-1" stroke="none" stroke-width="1" fill="none" fill-rule="evenodd">
        <g id="7" transform="translate(-422.000000, -20.000000)">
            <g id="Group-4" transform="translate(422.000000, 20.000000)">
                <rect id="Rectangle" fill-opacity="0" fill="#070A41" x="0" y="0" width="271.800525" height="40"></rect>
                <g id="Group-3" fill-rule="nonzero">
                    <path d="M18.1088918,10.1355982 L33.4642893,19.7959909 C34.2381909,20.2828681 34.8945521,20.9317584 35.387035,21.6968512 C37.2453654,24.5838456 36.3845228,28.4135442 33.4642893,30.2507225 L18.1088918,39.9111152 L18.1088918,29.9969975 L26.0145986,25.0233567 L18.1088918,20.0497159 L18.1088918,10.1355982 Z" id="Combined-Shape" fill="url(#linearGradient-1)"></path>
                    <path d="M18.1088918,19.9707139 L18.1088918,29.9989767 L2.95609895,20.3562903 C0.0358654325,18.4979599 -0.824977114,14.6241685 1.0333533,11.7039349 C1.52583614,10.9300333 2.18219734,10.2736721 2.95609895,9.78118931 L18.1088918,0.138502918 L18.1088918,10.1667657 L10.4057897,15.0687398 L18.1088918,19.9707139 Z" id="Combined-Shape" fill="url(#linearGradient-2)"></path>
                </g>
                <g id="Group" transform="translate(46.557620, 10.000000)" fill="#FFFFFF">
                    <path d="M13.1230254,12.9823109 C13.1230254,16.6604312 9.72437962,17.8213257 7.31659839,17.8213257 C2.71601641,17.8213257 0.974674631,15.1340699 0.673701977,12.573848 L4.371366,12.573848 C4.71533475,13.8226891 5.3817742,14.401182 7.29510035,14.401182 C8.77846557,14.401182 9.44490501,13.9301793 9.44490501,13.1347516 C9.44490501,12.2513773 8.54198705,12.1888375 6.02671559,11.649432 C3.57593828,11.1354332 1.06066682,10.2305609 1.06066682,7.11334413 C1.06066682,3.80264495 4.00589921,2.2117895 6.86513941,2.2117895 C11.123707,2.2117895 12.7360605,4.59807268 12.9940371,7.19933632 L9.29637305,7.19933632 C9.07943822,6.31791641 8.58498315,5.62997892 6.86513941,5.62997892 C5.23128787,5.62997892 4.7368328,6.29641836 4.7368328,6.94135976 C4.7368328,7.6507953 5.42477029,7.73678749 6.90813551,8.05925819 C11.123707,8.96217615 13.1230254,9.9080902 13.1230254,12.9823109 Z M16.7991913,12.9627672 L16.7991913,9.15565857 L14.778375,9.15565857 L14.778375,5.7159711 L16.7991913,5.7159711 L16.7991913,3.28669183 L20.4538593,2.4912641 L20.4538593,5.7159711 L24.4309979,5.7159711 L24.4309979,9.15565857 L20.4538593,9.15565857 L20.4538593,12.7477867 C20.4538593,13.8871832 21.0343065,14.4246344 21.9587225,14.4246344 C22.6036639,14.4246344 23.3775936,14.1666578 24.3880018,13.8441871 L25.0133995,16.7894195 C24.3450057,17.2623765 22.7971464,17.8213257 21.3137811,17.8213257 C19.0349882,17.8213257 16.7991913,16.4884468 16.7991913,12.9627672 Z M26.774285,11.6298883 C26.774285,7.95176795 29.1410245,5.4364965 32.0862569,5.4364965 C33.5911201,5.4364965 34.7090186,6.0814379 35.4614502,7.04884999 L35.4614502,5.7159711 L39.1161181,5.7159711 L39.0965745,17.5418511 L35.4399522,17.5418511 L35.4399522,16.2734664 C34.6875205,17.1978824 33.6126182,17.8213257 32.1077549,17.8213257 C29.0980284,17.8213257 26.774285,15.2845562 26.774285,11.6298883 Z M35.4614502,11.6298883 C35.4614502,9.99603675 34.3865479,8.91918005 32.9676768,8.91918005 C31.5488057,8.91918005 30.4739034,9.99603675 30.4739034,11.6298883 C30.4739034,13.2852379 31.5703038,14.3386422 32.9676768,14.3386422 C34.3865479,14.3386422 35.4614502,13.2852379 35.4614502,11.6298883 Z M41.9890389,5.7159711 L45.6437068,5.7159711 L45.6437068,7.04884999 C46.5036287,5.99544571 47.6000291,5.4364965 49.0618963,5.4364965 C51.7296084,5.4364965 53.3419619,7.26383046 53.3419619,10.1445687 L53.3419619,17.5418511 L49.687294,17.5418511 L49.687294,10.9614945 C49.687294,9.67356605 49.2983748,8.91918005 47.8169639,8.91918005 C46.3746404,8.91918005 45.6437068,9.63056996 45.6437068,11.2644215 L45.6437068,17.5418511 L41.9890389,17.5418511 L41.9890389,5.7159711 Z M56.476768,2.4912641 L63.2701507,2.4912641 C65.8948668,2.4912641 67.8941851,3.7811469 67.8941851,6.44690469 C67.8941851,7.90877186 67.2707418,8.79019177 66.1313453,9.39213708 C67.6792047,9.95108629 68.4101383,11.4344515 68.4101383,13.1347516 C68.4101383,15.9724937 66.2798773,17.5418511 63.2701507,17.5418511 L56.476768,17.5418511 L56.476768,2.4912641 Z M63.1841585,14.0591676 C64.4095472,14.0591676 64.7124742,13.5862105 64.7124742,12.8122809 C64.7124742,11.9719027 64.4095472,11.5634398 63.1841585,11.5634398 L60.1314359,11.5634398 L60.1314359,14.0591676 L63.1841585,14.0591676 Z M62.926182,8.23124256 C63.7431078,8.23124256 64.1945667,7.88727381 64.1945667,7.09184609 C64.1945667,6.16743008 63.6590699,5.97394766 62.7756957,5.97394766 L60.1314359,5.97394766 L60.1314359,8.23124256 L62.926182,8.23124256 Z M70.9566796,17.5418511 L70.9566796,5.7159711 L74.6133019,5.7159711 L74.6133019,17.5418511 L70.9566796,17.5418511 Z M74.9983124,2.2117895 C74.9983124,3.43717816 74.0758507,4.31859807 72.7840136,4.31859807 C71.5371269,4.31859807 70.5697148,3.43717816 70.5697148,2.2117895 C70.5697148,1.00594452 71.5371269,0.126478972 72.7840136,0.126478972 C74.0758507,0.126478972 74.9983124,1.00594452 74.9983124,2.2117895 Z M89.3648706,11.6298883 C89.3648706,15.198564 86.6346187,17.8213257 83.1714788,17.8213257 C79.7102933,17.8213257 76.9800414,15.177066 76.9800414,11.6298883 C76.9800414,8.05925819 79.7532894,5.4364965 83.1714788,5.4364965 C86.5916226,5.4364965 89.3648706,8.05925819 89.3648706,11.6298883 Z M80.6796598,11.6298883 C80.6796598,13.2852379 81.7760602,14.3386422 83.1714788,14.3386422 C84.5903499,14.3386422 85.6672066,13.2852379 85.6672066,11.6298883 C85.6672066,9.99603675 84.5903499,8.91918005 83.1714788,8.91918005 C81.7526078,8.91918005 80.6796598,9.99603675 80.6796598,11.6298883 Z" id="Combined-Shape"></path>
                    <path d="M96.2971574,10.1523862 C96.2971574,5.78046524 99.5492256,2.53035146 103.897694,2.53035146 C107.2338,2.53035146 109.893695,4.49449118 110.908012,7.47099346 L109.02791,7.47099346 C108.142581,5.48535569 106.240981,4.19742726 103.876196,4.19742726 C100.54009,4.19742726 98.0697691,6.75178608 98.0697691,10.1523862 C98.0697691,13.5510319 100.54009,16.1053907 103.876196,16.1053907 C106.240981,16.1053907 108.142581,14.8174623 109.02791,12.8337789 L110.908012,12.8337789 C109.893695,15.8102812 107.2338,17.7744209 103.897694,17.7744209 C99.5492256,17.7744209 96.2971574,14.5223528 96.2971574,10.1523862 Z M125.137764,11.7354242 C125.137764,15.2181077 122.499368,17.7744209 119.143718,17.7744209 C115.807612,17.7744209 113.167261,15.198564 113.167261,11.7354242 C113.167261,8.25274061 115.848654,5.69642742 119.143718,5.69642742 C122.458326,5.69642742 125.137764,8.25274061 125.137764,11.7354242 Z M114.941827,11.7354242 C114.941827,14.289783 116.798476,16.1053907 119.143718,16.1053907 C121.508503,16.1053907 123.365153,14.289783 123.365153,11.7354242 C123.365153,9.18106535 121.487005,7.36545759 119.143718,7.36545759 C116.819974,7.36545759 114.941827,9.1595673 114.941827,11.7354242 Z M127.967689,5.9289972 L129.720757,5.9289972 L129.720757,8.20974451 C130.522048,6.66774826 131.851018,5.69642742 133.879652,5.69642742 C136.49655,5.69642742 138.081543,7.34395954 138.081543,10.1719299 L138.081543,17.5418511 L136.328475,17.5418511 L136.328475,10.5100355 C136.328475,8.42081625 135.294614,7.36545759 133.393014,7.36545759 C131.028229,7.36545759 129.720757,9.03253339 129.720757,11.5888466 L129.720757,17.5418511 L127.967689,17.5418511 L127.967689,5.9289972 Z M141.402014,5.9289972 L143.155082,5.9289972 L143.155082,8.20974451 C143.956372,6.66774826 145.287297,5.69642742 147.313976,5.69642742 C149.930875,5.69642742 151.515867,7.34395954 151.515867,10.1719299 L151.515867,17.5418511 L149.762799,17.5418511 L149.762799,10.5100355 C149.762799,8.42081625 148.728939,7.36545759 146.827339,7.36545759 C144.462554,7.36545759 143.155082,9.03253339 143.155082,11.5888466 L143.155082,17.5418511 L141.402014,17.5418511 L141.402014,5.9289972 Z M154.244165,11.7784203 C154.244165,8.25274061 156.712532,5.69642742 160.175671,5.69642742 C163.785389,5.69642742 166.13063,8.44231429 165.982098,12.2631035 L156.03632,12.2631035 C156.20635,14.6708847 157.916422,16.1268888 160.259709,16.1268888 C161.864245,16.1268888 163.19517,15.4526319 163.892879,14.1002093 L165.706533,14.1002093 C164.737166,16.5705303 162.624494,17.7744209 160.19717,17.7744209 C156.755528,17.7744209 154.244165,15.325598 154.244165,11.7784203 Z M164.082453,10.6155714 C163.701351,8.6729297 162.266845,7.34395954 160.175671,7.34395954 C158.043456,7.34395954 156.522958,8.71592579 156.122313,10.6155714 L164.082453,10.6155714 Z M168.221804,11.7354242 C168.221804,8.27228429 170.819159,5.69642742 174.217805,5.69642742 C176.920695,5.69642742 179.244439,7.3224615 179.856156,9.98235618 L178.040548,9.98235618 C177.491371,8.33482406 176.013869,7.3224615 174.217805,7.3224615 C171.768982,7.3224615 169.99637,9.18106535 169.99637,11.7354242 C169.99637,14.311281 171.79048,16.1483868 174.217805,16.1483868 C176.013869,16.1483868 177.491371,15.1145262 178.040548,13.4884922 L179.856156,13.4884922 C179.222941,16.1913829 176.879654,17.7744209 174.217805,17.7744209 C170.819159,17.7744209 168.221804,15.198564 168.221804,11.7354242 Z M183.524505,13.1073904 L183.524505,7.57652932 L181.286753,7.57652932 L181.286753,5.9289972 L183.524505,5.9289972 L183.524505,3.14206861 L185.277573,2.76292124 L185.277573,5.9289972 L190.491826,5.9289972 L190.491826,7.57652932 L185.277573,7.57652932 L185.277573,13.0233526 C185.277573,15.0089904 186.164856,16.1483868 187.980463,16.1483868 C188.803252,16.1483868 189.647539,15.894319 190.513324,15.5777114 L190.829932,17.0356699 C190.196716,17.3718211 188.951784,17.7744209 187.683399,17.7744209 C185.19158,17.7744209 183.524505,16.1698849 183.524505,13.1073904 Z M195.601724,8.29378233 L194.356792,8.29378233 L195.750256,4.87363855 C195.242121,4.72510659 194.904015,4.32446117 194.904015,3.73228771 C194.904015,3.0150347 195.431694,2.53035146 196.129404,2.53035146 C196.635585,2.53035146 197.333294,2.80396296 197.354792,3.7752838 C197.37629,4.13488749 197.311796,4.578529 195.601724,8.29378233 Z M199.184854,16.2754207 L203.470783,12.536715 C207.059003,9.39213708 208.114361,8.48335602 208.114361,6.96285781 C208.114361,5.36027615 206.828387,4.19742726 204.78021,4.19742726 C202.689036,4.19742726 201.485145,5.40131787 201.0845,7.30096345 L199.311888,7.30096345 C199.734032,4.36745727 201.866247,2.53035146 204.864247,2.53035146 C207.883746,2.53035146 209.867429,4.42999704 209.867429,6.90031804 C209.867429,9.09702753 208.305889,10.4474957 204.905289,13.4025 L202.077319,15.8532773 L210.270029,15.8532773 L210.270029,17.5418511 L199.184854,17.5418511 L199.184854,16.2754207 Z M223.223579,12.6442052 C223.223579,15.6617492 220.880292,17.7744209 217.84125,17.7744209 C215.032823,17.7744209 212.541004,16.2109266 212.097363,13.1718846 L213.871929,13.1718846 C214.31557,15.0930282 215.87711,16.1053907 217.84125,16.1053907 C219.951967,16.1053907 221.450968,14.6063906 221.450968,12.6442052 C221.450968,10.5960277 219.930469,9.26510317 217.862748,9.26510317 C216.174174,9.26510317 215.032823,10.0253523 214.356612,11.1862468 L212.668038,11.1862468 L214.462148,2.76292124 L222.527824,2.76292124 L222.527824,4.42999704 L215.793073,4.42999704 L214.821752,9.03253339 C215.644541,8.25274061 216.742895,7.78760105 218.200854,7.78760105 C220.966284,7.78760105 223.223579,9.64425054 223.223579,12.6442052 Z" id="Combined-Shape"></path>
                </g>
            </g>
        </g>
    </g>
</svg>